<svg width="64" height="64" viewBox="0 0 64 64" fill="none" xmlns="http://www.w3.org/2000/svg">
<path d="M12.3598 38.4405L15.1305 32.5658C15.4862 31.8117 16.5137 31.8117 16.8694 32.5658L19.64 38.4405L25.8362 39.3885C26.6311 39.5101 26.9479 40.5328 26.3724 41.1197L21.8898 45.6893L22.9477 52.145C23.0836 52.9741 22.2521 53.6061 21.5407 53.2146L15.9999 50.165L10.4591 53.2146C9.74776 53.6061 8.91626 52.9741 9.05213 52.145L10.1101 45.6893L5.62738 41.1197C5.05184 40.5328 5.36869 39.5101 6.16368 39.3885L12.3598 38.4405Z" stroke="#7E22CE" stroke-width="1.5" stroke-linecap="round" stroke-linejoin="round"/>
<path d="M44.3599 38.4405L47.1308 32.5658C47.4863 31.8117 48.514 31.8117 48.8695 32.5658L51.6404 38.4405L57.8364 39.3885C58.6313 39.5101 58.9481 40.5328 58.3727 41.1197L53.89 45.6893L54.9479 52.145C55.0839 52.9741 54.2524 53.6061 53.5409 53.2146L48.0001 50.165L42.4593 53.2146C41.7479 53.6061 40.9164 52.9741 41.0524 52.145L42.1103 45.6893L37.6276 41.1197C37.0521 40.5328 37.3689 39.5101 38.1639 39.3885L44.3599 38.4405Z" stroke="#7E22CE" stroke-width="1.5" stroke-linecap="round" stroke-linejoin="round"/>
<path d="M28.3596 14.4406L31.1306 8.56586C31.486 7.8117 32.5138 7.8117 32.8692 8.56586L35.6402 14.4406L41.8362 15.3885C42.6311 15.5101 42.9479 16.5329 42.3724 17.1196L37.8898 21.6892L38.9476 28.145C39.0836 28.9741 38.2522 29.6061 37.5407 29.2146L31.9999 26.165L26.4591 29.2146C25.7478 29.6061 24.9163 28.9741 25.0521 28.145L26.11 21.6892L21.6274 17.1196C21.0518 16.5329 21.3687 15.5101 22.1637 15.3885L28.3596 14.4406Z" stroke="#7E22CE" stroke-width="1.5" stroke-linecap="round" stroke-linejoin="round"/>
</svg>
