<svg width="64" height="64" viewBox="0 0 64 64" fill="none" xmlns="http://www.w3.org/2000/svg">
<path d="M45.3333 58.6668H18.6667C15.7211 58.6668 13.3333 56.2791 13.3333 53.3335V29.818C13.3333 29.502 13.2398 29.1932 13.0646 28.9303L8.26872 21.7366C8.09349 21.4737 8 21.1649 8 20.849V6.9335C8 6.04984 8.71635 5.3335 9.6 5.3335H14.4C15.2837 5.3335 16 6.04984 16 6.9335V11.7335C16 12.6171 16.7163 13.3335 17.6 13.3335H25.0667C25.9503 13.3335 26.6667 12.6171 26.6667 11.7335V6.9335C26.6667 6.04984 27.3829 5.3335 28.2667 5.3335H35.7333C36.6171 5.3335 37.3333 6.04984 37.3333 6.9335V11.7335C37.3333 12.6171 38.0496 13.3335 38.9333 13.3335H46.4C47.2837 13.3335 48 12.6171 48 11.7335V6.9335C48 6.04984 48.7163 5.3335 49.6 5.3335H54.4C55.2837 5.3335 56 6.04984 56 6.9335V20.849C56 21.1649 55.9064 21.4737 55.7312 21.7366L50.9355 28.9303C50.7603 29.1932 50.6667 29.502 50.6667 29.818V53.3335C50.6667 56.2791 48.2789 58.6668 45.3333 58.6668Z" stroke="#7E22CE" stroke-width="1.5"/>
</svg>
